<svg xmlns="http://www.w3.org/2000/svg" xmlns:xlink="http://www.w3.org/1999/xlink" width="2271" height="480" viewBox="0 0 2271 480">
  <defs>
    <linearGradient id="linear-gradient" x1="0.5" y1="0.5" x2="0" y2="1.261" gradientUnits="objectBoundingBox">
      <stop offset="0" stop-color="#019062"/>
      <stop offset="1"/>
    </linearGradient>
    <linearGradient id="linear-gradient-2" x1="0.927" y1="-0.17" x2="-0.569" y2="2.437" gradientUnits="objectBoundingBox">
      <stop offset="0.29" stop-color="#009062"/>
      <stop offset="0.47" stop-color="#0f262c"/>
    </linearGradient>
    <clipPath id="clip-Logo">
      <rect width="2271" height="480"/>
    </clipPath>
  </defs>
  <g id="Logo" clip-path="url(#clip-Logo)">
    <g id="Group_14" data-name="Group 14" transform="translate(67.406 -3)">
      <g id="logo-2" data-name="logo" transform="translate(14 44.5)">
        <path id="Path_68" data-name="Path 68" d="M307.6,93.985H256.481l-93.07,147.024h51.122Z" transform="translate(157.246 52.266)" fill="url(#linear-gradient)"/>
        <path id="Path_69" data-name="Path 69" d="M90.456,41H4L203.977,356l43.228-68.09Z" fill="#019062"/>
        <path id="Path_70" data-name="Path 70" d="M232.647,41h51.122l-103,163.891H129.651Z" transform="translate(123.944)" fill="url(#linear-gradient-2)"/>
        <path id="Path_71" data-name="Path 71" d="M156.31,41H69.853L268.326,353.632l43.228-68.092Z" transform="translate(64.959)" fill="#019062"/>
      </g>
      <g id="logo-text" transform="translate(557.906 124.5)">
        <path id="Path_72" data-name="Path 72" d="M.943,5.926H44.509L77.371,117.269,120.233,5.926h34.694l42.579,110.318,32.3-110.318h44.271L216.38,164.84h-35.4L137.415,52.148,92.488,164.84H57.419Z" transform="translate(0 68.564)" fill="#019062"/>
        <path id="Path_73" data-name="Path 73" d="M67.042,102.381c2.016,21.343,19.037,37.942,50.312,37.942,25.132,0,53.359-12.378,64.237-18.592v35.76a153.292,153.292,0,0,1-69.675,16.885c-60.956,0-88.057-36.14-88.057-86.652,0-49.183,34.369-82.194,85.665-82.194s73.24,36.71,73.24,72.091a134.722,134.722,0,0,1-2.016,24.758Zm77.836-24.047c1.688-26.465-13.6-40.6-35.682-40.6-25.835,0-42.856,15.509-42.856,40.6Z" transform="translate(265.116 63.993)" fill="#019062"/>
        <path id="Path_74" data-name="Path 74" d="M40.451,4.388,80.18,0V233.405H40.451Z" transform="translate(457.096)" fill="#019062"/>
        <path id="Path_75" data-name="Path 75" d="M48.543,8.991H91.1V24.967a76.453,76.453,0,0,1,53.1-19.406c40.1,0,63.074,24.528,63.074,62.354v101.5H164.714V67.586c0-19.782-13.712-29.321-35.982-29.321A55.051,55.051,0,0,0,90.907,51.892V169.364H48.353Z" transform="translate(548.515 63.993)" fill="#019062"/>
        <path id="Path_76" data-name="Path 76" d="M242.934,166.106a58.426,58.426,0,0,1-30.154,8.257A33.65,33.65,0,0,1,194,169.3a33.3,33.3,0,0,1-12.763-14.582A86.4,86.4,0,0,1,125.8,174.363c-36.367,0-61.647-18.27-61.647-52.2,0-36.491,30.49-52.624,87.311-52.624h24.946V60.907c0-16.513-10.752-22.35-31.541-22.35A167.973,167.973,0,0,0,76.629,51.274v-35.4A241.721,241.721,0,0,1,145.588,5.531c43.967,0,72.066,13.761,72.066,55.043v65.72c0,8.257,3.44,12.717,10.37,12.717a34.165,34.165,0,0,0,14.91-3.8Zm-90.416-72.6c-32.592,0-46.069,8.921-46.069,25.814,0,14.235,8.65,23.393,31.159,23.393a55.872,55.872,0,0,0,38.232-13.1V93.506Z" transform="translate(731.354 63.993)" fill="#019062"/>
        <path id="Path_77" data-name="Path 77" d="M81.729,8.991h42.554V24.967A76.593,76.593,0,0,1,177.427,5.561c40.1,0,63.026,24.528,63.026,62.354v101.5H197.9V67.586c0-19.782-13.664-29.321-35.981-29.321a55.148,55.148,0,0,0-37.826,13.627V169.364H81.541Z" transform="translate(932.478 63.993)" fill="#019062"/>
        <path id="Path_78" data-name="Path 78" d="M251.3,63.716a98.343,98.343,0,0,0-62.383-24.374c-30.494,0-47.8,19.916-47.8,48.8,0,31.3,19.7,52.161,47.8,52.161A96.956,96.956,0,0,0,251.3,114.835V154.05a106.555,106.555,0,0,1-65.1,20.3c-51.447,0-88.855-32.673-88.855-86.305,0-49.506,36.289-82.51,88.855-82.51,34.6,0,57.983,12.377,65.1,18.589Z" transform="translate(1115.316 63.993)" fill="#019062"/>
        <path id="Path_79" data-name="Path 79" d="M155.5,102.381c2.061,21.343,19.018,37.942,50.253,37.942,25.152,0,53.295-12.378,64.155-18.592v35.76a152.914,152.914,0,0,1-69.585,16.885c-60.887,0-87.962-36.14-87.962-86.652,0-49.183,34.327-82.194,85.573-82.194S271.261,42,271.261,77.385a133.936,133.936,0,0,1-2.011,24.758Zm77.743-24.047c1.735-26.465-13.588-40.6-35.647-40.6-25.805,0-42.749,15.509-42.749,40.6Z" transform="translate(1289.011 63.993)" fill="#019062"/>
      </g>
    </g>
  </g>
</svg>
